<?xml version="1.0" encoding="utf-8"?>
<!-- Generator: Adobe Illustrator 17.0.0, SVG Export Plug-In . SVG Version: 6.00 Build 0)  -->
<!DOCTYPE svg PUBLIC "-//W3C//DTD SVG 1.1//EN" "http://www.w3.org/Graphics/SVG/1.1/DTD/svg11.dtd">
<svg version="1.1" id="图层_1" xmlns="http://www.w3.org/2000/svg" xmlns:xlink="http://www.w3.org/1999/xlink" x="0px" y="0px"
   width="100%" height="100%" viewBox="0 0 1080 1920" enable-background="new 0 0 1080 1920" xml:space="preserve">
<path fill-rule="evenodd" clip-rule="evenodd" fill="#dff4fc" fill-opacity="0.4" d="M-185,1153v1008h1488v-936c0,0-118.902,101.101-307,92
  c-233.279-11.288-568.995-189.193-813-201C-30.715,1105.659-185,1153-185,1153z"/>
<path fill-rule="evenodd" clip-rule="evenodd" fill="#dff4fc" fill-opacity="0.4" d="M-107,1386l-21,1446h1488V1306c0,0-320.839-154-697-154
  C60.546,1152-107,1386-107,1386z"/>
<path fill-rule="evenodd" clip-rule="evenodd" fill="#dff4fc" fill-opacity="0.4" d="M-108,1266v894h1488v-936c0,0-121.902-83.899-310-93
  c-233.279-11.288-555.711,142.734-800,142C56.325,1272.358-107.992,1267.835-108,1266z"/>
</svg>
